<?xml version="1.0" encoding="UTF-8"?>
<svg xmlns="http://www.w3.org/2000/svg" xmlns:xlink="http://www.w3.org/1999/xlink" width="421px" height="500px" viewBox="0 0 421 500" version="1.1">
<g id="surface1">
<path style=" stroke:none;fill-rule:nonzero;fill:rgb(70.196078%,70.196078%,70.196078%);fill-opacity:1;" d="M 412.332031 389.652344 C 404.773438 407.121094 395.820312 423.199219 385.453125 437.984375 C 371.316406 458.136719 359.742188 472.085938 350.824219 479.835938 C 336.996094 492.550781 322.179688 499.0625 306.316406 499.433594 C 294.929688 499.433594 281.195312 496.191406 265.207031 489.617188 C 249.167969 483.074219 234.429688 479.835938 220.949219 479.835938 C 206.816406 479.835938 191.65625 483.074219 175.4375 489.617188 C 159.199219 496.191406 146.117188 499.617188 136.113281 499.957031 C 120.902344 500.605469 105.738281 493.90625 90.601562 479.835938 C 80.941406 471.410156 68.859375 456.964844 54.382812 436.503906 C 38.855469 414.652344 26.085938 389.3125 16.082031 360.425781 C 5.371094 329.222656 0 299.007812 0 269.753906 C 0 236.246094 7.242188 207.34375 21.742188 183.128906 C 33.140625 163.675781 48.304688 148.328125 67.28125 137.0625 C 86.257812 125.796875 106.765625 120.058594 128.847656 119.691406 C 140.929688 119.691406 156.777344 123.429688 176.46875 130.773438 C 196.101562 138.144531 208.710938 141.882812 214.238281 141.882812 C 218.371094 141.882812 232.375 137.511719 256.117188 128.796875 C 278.570312 120.71875 297.523438 117.371094 313.046875 118.691406 C 355.113281 122.085938 386.714844 138.667969 407.734375 168.542969 C 370.113281 191.339844 351.5 223.269531 351.871094 264.226562 C 352.210938 296.128906 363.785156 322.679688 386.53125 343.757812 C 396.839844 353.542969 408.351562 361.101562 421.160156 366.472656 C 418.382812 374.527344 415.449219 382.246094 412.332031 389.652344 Z M 315.855469 10.003906 C 315.855469 35.007812 306.71875 58.355469 288.511719 79.964844 C 266.535156 105.65625 239.957031 120.503906 211.132812 118.160156 C 210.765625 115.160156 210.550781 112.003906 210.550781 108.683594 C 210.550781 84.679688 221.003906 58.988281 239.5625 37.984375 C 248.824219 27.347656 260.609375 18.503906 274.898438 11.449219 C 289.15625 4.5 302.644531 0.65625 315.328125 0 C 315.699219 3.34375 315.855469 6.6875 315.855469 10.003906 Z M 315.855469 10.003906 "/>
</g>
</svg>
