<?xml version="1.0" encoding="UTF-8"?>
<svg xmlns="http://www.w3.org/2000/svg" xmlns:xlink="http://www.w3.org/1999/xlink" width="500px" height="451px" viewBox="0 0 499 451" version="1.1">
<defs>
<linearGradient id="linear0" gradientUnits="userSpaceOnUse" x1="1.08633" y1="0.13818" x2="0.46927" y2="0.78776" gradientTransform="matrix(398.527344,0,0,295.929688,76.566406,152.660156)">
<stop offset="0.18" style="stop-color:rgb(0%,32.156863%,80%);stop-opacity:1;"/>
<stop offset="1" style="stop-color:rgb(14.901961%,51.764706%,100%);stop-opacity:1;"/>
</linearGradient>
</defs>
<g id="surface1">
<path style=" stroke:none;fill-rule:nonzero;fill:rgb(14.901961%,51.764706%,100%);fill-opacity:1;" d="M 17.941406 2.996094 C 13.253906 2.933594 8.777344 4.953125 5.71875 8.511719 C 2.65625 12.066406 1.324219 16.796875 2.074219 21.433594 L 69.4375 430.996094 C 71.167969 441.339844 80.066406 448.949219 90.539062 449.035156 L 413.699219 449.035156 C 421.558594 449.136719 428.308594 443.457031 429.5625 435.683594 L 496.925781 21.511719 C 497.675781 16.878906 496.34375 12.148438 493.28125 8.589844 C 490.21875 5.035156 485.746094 3.015625 481.058594 3.078125 Z M 301.585938 299.003906 L 198.441406 299.003906 L 170.515625 152.867188 L 326.582031 152.867188 Z M 301.585938 299.003906 "/>
<path style=" stroke:none;fill-rule:nonzero;fill:url(#linear0);" d="M 475.09375 152.660156 L 326.292969 152.660156 L 301.316406 298.679688 L 198.257812 298.679688 L 76.566406 443.351562 C 80.421875 446.691406 85.339844 448.546875 90.441406 448.589844 L 413.417969 448.589844 C 421.273438 448.691406 428.019531 443.015625 429.277344 435.25 Z M 475.09375 152.660156 "/>
</g>
</svg>
