<?xml version="1.0" encoding="UTF-8"?>
<svg xmlns="http://www.w3.org/2000/svg" xmlns:xlink="http://www.w3.org/1999/xlink" width="500px" height="387px" viewBox="0 0 499 387" version="1.1">
<g id="surface1">
<path style=" stroke:none;fill-rule:nonzero;fill:rgb(34.509804%,39.607843%,94.901961%);fill-opacity:1;" d="M 422.425781 34.460938 C 390.621094 19.851562 356.515625 9.089844 320.855469 2.921875 C 320.207031 2.804688 319.558594 3.101562 319.222656 3.695312 C 314.835938 11.507812 309.976562 21.695312 306.574219 29.703125 C 268.222656 23.957031 230.0625 23.957031 192.496094 29.703125 C 189.09375 21.519531 184.058594 11.507812 179.652344 3.695312 C 179.316406 3.121094 178.667969 2.824219 178.019531 2.921875 C 142.378906 9.070312 108.273438 19.832031 76.449219 34.460938 C 76.175781 34.582031 75.9375 34.78125 75.78125 35.039062 C 11.089844 131.796875 -6.632812 226.179688 2.0625 319.390625 C 2.101562 319.847656 2.355469 320.28125 2.710938 320.558594 C 45.390625 351.941406 86.738281 370.992188 127.3125 383.617188 C 127.960938 383.816406 128.652344 383.578125 129.0625 383.042969 C 138.664062 369.921875 147.21875 356.085938 154.554688 341.53125 C 154.988281 340.679688 154.574219 339.667969 153.6875 339.332031 C 140.117188 334.179688 127.195312 327.894531 114.765625 320.757812 C 113.78125 320.183594 113.703125 318.777344 114.605469 318.101562 C 117.222656 316.140625 119.839844 314.097656 122.335938 312.035156 C 122.789062 311.660156 123.417969 311.578125 123.949219 311.816406 C 205.613281 349.144531 294.027344 349.144531 374.726562 311.816406 C 375.257812 311.558594 375.886719 311.640625 376.359375 312.015625 C 378.859375 314.078125 381.472656 316.140625 384.109375 318.101562 C 385.015625 318.777344 384.957031 320.183594 383.972656 320.757812 C 371.542969 328.03125 358.617188 334.179688 345.027344 339.3125 C 344.144531 339.648438 343.75 340.679688 344.183594 341.53125 C 351.675781 356.0625 360.230469 369.902344 369.652344 383.023438 C 370.046875 383.578125 370.753906 383.816406 371.402344 383.617188 C 412.175781 370.992188 453.519531 351.941406 496.203125 320.558594 C 496.574219 320.28125 496.8125 319.867188 496.851562 319.410156 C 507.257812 211.648438 479.425781 118.039062 423.074219 35.058594 C 422.933594 34.78125 422.699219 34.582031 422.425781 34.460938 Z M 166.75 262.632812 C 142.164062 262.632812 121.902344 240.035156 121.902344 212.28125 C 121.902344 184.527344 141.769531 161.929688 166.75 161.929688 C 191.925781 161.929688 211.988281 184.726562 211.59375 212.28125 C 211.59375 240.035156 191.726562 262.632812 166.75 262.632812 Z M 332.558594 262.632812 C 307.972656 262.632812 287.710938 240.035156 287.710938 212.28125 C 287.710938 184.527344 307.578125 161.929688 332.558594 161.929688 C 357.734375 161.929688 377.796875 184.726562 377.402344 212.28125 C 377.402344 240.035156 357.734375 262.632812 332.558594 262.632812 Z M 332.558594 262.632812 "/>
</g>
</svg>
