<?xml version="1.0" encoding="UTF-8"?>
<svg xmlns="http://www.w3.org/2000/svg" xmlns:xlink="http://www.w3.org/1999/xlink" width="500px" height="500px" viewBox="0 0 500 500" version="1.1">
<g id="surface1">
<path style=" stroke:none;fill-rule:nonzero;fill:rgb(9.803922%,46.666667%,95.294118%);fill-opacity:1;" d="M 500 250 C 500 111.9375 388.058594 0 250 0 C 111.9375 0 0 111.9375 0 250 C 0 374.769531 91.40625 478.203125 210.941406 496.976562 L 210.941406 322.28125 L 147.449219 322.28125 L 147.449219 250 L 210.941406 250 L 210.941406 194.910156 C 210.941406 132.257812 248.277344 97.628906 305.371094 97.628906 C 332.722656 97.628906 361.339844 102.515625 361.339844 102.515625 L 361.339844 164.042969 L 329.804688 164.042969 C 298.761719 164.042969 289.058594 183.308594 289.058594 203.101562 L 289.058594 250 L 358.386719 250 L 347.3125 322.28125 L 289.058594 322.28125 L 289.058594 496.976562 C 408.589844 478.238281 500 374.804688 500 250 Z M 500 250 "/>
<path style=" stroke:none;fill-rule:nonzero;fill:rgb(99.607843%,99.607843%,99.607843%);fill-opacity:1;" d="M 347.3125 322.28125 L 358.386719 250 L 289.058594 250 L 289.058594 203.101562 C 289.058594 183.34375 298.726562 164.042969 329.804688 164.042969 L 361.339844 164.042969 L 361.339844 102.515625 C 361.339844 102.515625 332.722656 97.628906 305.371094 97.628906 C 248.277344 97.628906 210.941406 132.222656 210.941406 194.910156 L 210.941406 250 L 147.449219 250 L 147.449219 322.28125 L 210.941406 322.28125 L 210.941406 496.976562 C 223.667969 498.980469 236.710938 500 250 500 C 263.289062 500 276.332031 498.945312 289.058594 496.976562 L 289.058594 322.28125 Z M 347.3125 322.28125 "/>
</g>
</svg>
