<?xml version="1.0" encoding="UTF-8"?>
<svg xmlns="http://www.w3.org/2000/svg" xmlns:xlink="http://www.w3.org/1999/xlink" width="513px" height="500px" viewBox="0 0 515 500" version="1.1">
<g id="surface1">
<path style=" stroke:none;fill-rule:nonzero;fill:rgb(0%,0%,0%);fill-opacity:1;" d="M 257.5 0 C 131.808594 -0.128906 24.605469 91.101562 4.480469 215.324219 C -15.644531 339.546875 57.257812 460.027344 176.546875 499.683594 C 189.4375 502.046875 193.996094 494.019531 193.996094 487.253906 C 193.996094 480.484375 193.996094 465.0625 193.996094 443.65625 C 122.472656 459.238281 107.382812 409.191406 107.382812 409.191406 C 102.636719 393.679688 92.558594 380.355469 78.933594 371.578125 C 55.824219 355.839844 80.816406 355.839844 80.816406 355.839844 C 97.230469 358.160156 111.664062 367.910156 119.957031 382.277344 C 126.984375 395.03125 138.789062 404.457031 152.773438 408.472656 C 166.753906 412.492188 181.757812 410.765625 194.464844 403.683594 C 195.453125 390.734375 201.027344 378.566406 210.1875 369.375 C 153.28125 362.921875 93.550781 340.886719 93.550781 243.46875 C 93.160156 218.019531 102.558594 193.394531 119.800781 174.691406 C 112.121094 152.566406 113.019531 128.359375 122.316406 106.863281 C 122.316406 106.863281 143.851562 99.9375 192.738281 133.144531 C 234.714844 121.605469 279.027344 121.605469 321.003906 133.144531 C 369.890625 99.9375 391.269531 106.863281 391.269531 106.863281 C 400.695312 128.128906 401.816406 152.164062 394.414062 174.222656 C 411.65625 192.921875 421.054688 217.546875 420.664062 242.996094 C 420.664062 341.515625 360.773438 363.078125 303.714844 368.902344 C 316.09375 381.359375 322.460938 398.589844 321.164062 416.117188 C 321.164062 450.425781 321.164062 478.125 321.164062 486.464844 C 321.164062 494.804688 325.71875 501.257812 338.765625 498.742188 C 456.640625 458.058594 528.113281 338.285156 508.035156 215.085938 C 487.960938 91.882812 382.175781 1.066406 257.5 0 Z M 257.5 0 "/>
</g>
</svg>
