<?xml version="1.0" encoding="UTF-8"?>
<svg xmlns="http://www.w3.org/2000/svg" xmlns:xlink="http://www.w3.org/1999/xlink" width="523px" height="500px" viewBox="0 0 524 500" version="1.1">
<g id="surface1">
<path style=" stroke:none;fill-rule:nonzero;fill:rgb(88.627451%,26.27451%,16.078431%);fill-opacity:1;" d="M 262 490.429688 L 358.125 194.542969 L 165.964844 194.542969 Z M 262 490.429688 "/>
<path style=" stroke:none;fill-rule:nonzero;fill:rgb(98.823529%,63.921569%,14.901961%);fill-opacity:1;" d="M 31.296875 194.542969 L 2.058594 284.4375 C -0.625 292.574219 2.234375 301.609375 9.300781 306.707031 L 262 490.429688 Z M 31.296875 194.542969 "/>
<path style=" stroke:none;fill-rule:nonzero;fill:rgb(88.627451%,26.27451%,16.078431%);fill-opacity:1;" d="M 31.296875 194.542969 L 165.964844 194.542969 L 108.019531 16.367188 C 105.066406 7.246094 92.101562 7.246094 89.0625 16.367188 Z M 31.296875 194.542969 "/>
<path style=" stroke:none;fill-rule:nonzero;fill:rgb(98.823529%,63.921569%,14.901961%);fill-opacity:1;" d="M 492.882812 194.542969 L 522.03125 284.4375 C 524.714844 292.574219 521.855469 301.609375 514.789062 306.707031 L 262 490.429688 Z M 492.882812 194.542969 "/>
<path style=" stroke:none;fill-rule:nonzero;fill:rgb(88.627451%,26.27451%,16.078431%);fill-opacity:1;" d="M 492.882812 194.542969 L 358.214844 194.542969 L 416.070312 16.367188 C 419.019531 7.246094 431.988281 7.246094 435.027344 16.367188 Z M 492.882812 194.542969 "/>
<path style=" stroke:none;fill-rule:nonzero;fill:rgb(98.823529%,42.745098%,14.901961%);fill-opacity:1;" d="M 262 490.429688 L 358.214844 194.542969 L 492.882812 194.542969 Z M 262 490.429688 "/>
<path style=" stroke:none;fill-rule:nonzero;fill:rgb(98.823529%,42.745098%,14.901961%);fill-opacity:1;" d="M 262 490.429688 L 31.296875 194.542969 L 165.964844 194.542969 Z M 262 490.429688 "/>
</g>
</svg>
