<?xml version="1.0" encoding="UTF-8"?>
<svg xmlns="http://www.w3.org/2000/svg" xmlns:xlink="http://www.w3.org/1999/xlink" width="489px" height="500px" viewBox="0 0 489 500" version="1.1">
<g id="surface1">
<path style=" stroke:none;fill-rule:nonzero;fill:rgb(25.882353%,52.156863%,95.686275%);fill-opacity:1;" d="M 488.742188 254.675781 C 488.742188 234.191406 487.078125 219.246094 483.476562 203.742188 L 249.371094 203.742188 L 249.371094 296.199219 L 386.785156 296.199219 C 384.015625 319.175781 369.054688 353.78125 335.808594 377.03125 L 335.34375 380.128906 L 409.363281 437.421875 L 414.492188 437.933594 C 461.589844 394.472656 488.742188 330.527344 488.742188 254.675781 "/>
<path style=" stroke:none;fill-rule:nonzero;fill:rgb(20.392157%,65.882353%,32.54902%);fill-opacity:1;" d="M 249.371094 498.28125 C 316.691406 498.28125 373.210938 476.136719 414.492188 437.933594 L 335.808594 377.03125 C 314.753906 391.703125 286.496094 401.945312 249.371094 401.945312 C 183.433594 401.945312 127.46875 358.488281 107.519531 298.417969 L 104.59375 298.664062 L 27.628906 358.179688 L 26.621094 360.976562 C 67.625 442.363281 151.847656 498.28125 249.371094 498.28125 "/>
<path style=" stroke:none;fill-rule:nonzero;fill:rgb(98.431373%,73.72549%,1.960784%);fill-opacity:1;" d="M 107.519531 298.417969 C 102.253906 282.914062 99.210938 266.304688 99.210938 249.140625 C 99.210938 231.976562 102.253906 215.367188 107.242188 199.867188 L 107.101562 196.566406 L 29.171875 136.089844 L 26.621094 137.304688 C 9.722656 171.078125 0.0234375 209 0.0234375 249.140625 C 0.0234375 289.28125 9.722656 327.203125 26.621094 360.976562 L 107.519531 298.417969 "/>
<path style=" stroke:none;fill-rule:nonzero;fill:rgb(92.156863%,26.27451%,20.784314%);fill-opacity:1;" d="M 249.371094 96.332031 C 296.191406 96.332031 327.773438 116.542969 345.785156 133.429688 L 416.152344 64.777344 C 372.933594 24.636719 316.691406 0 249.371094 0 C 151.847656 0 67.625 55.917969 26.621094 137.304688 L 107.242188 199.867188 C 127.46875 139.796875 183.433594 96.332031 249.371094 96.332031 "/>
</g>
</svg>
