<?xml version="1.0" encoding="UTF-8"?>
<svg xmlns="http://www.w3.org/2000/svg" xmlns:xlink="http://www.w3.org/1999/xlink" width="500px" height="500px" viewBox="0 0 500 500" version="1.1">
<g id="surface1">
<path style=" stroke:none;fill-rule:nonzero;fill:rgb(0%,54.117647%,66.666667%);fill-opacity:1;" d="M 461.070312 160.117188 L 399.007812 160.117188 C 397.851562 160.117188 396.695312 159.5 396.15625 158.496094 L 346.339844 71.933594 C 345.722656 70.929688 344.644531 70.3125 343.414062 70.3125 L 140.128906 70.3125 C 138.972656 70.3125 137.820312 70.929688 137.277344 71.933594 L 85.457031 161.734375 L 35.558594 248.300781 C 35.023438 249.304688 35.023438 250.539062 35.558594 251.617188 L 85.457031 338.179688 L 137.203125 428.0625 C 137.742188 429.0625 138.898438 429.757812 140.050781 429.679688 L 343.414062 429.679688 C 344.566406 429.679688 345.722656 429.0625 346.339844 428.0625 L 396.234375 341.5 C 396.773438 340.496094 397.929688 339.800781 399.085938 339.878906 L 461.148438 339.878906 C 463.226562 339.878906 464.84375 338.179688 464.84375 336.175781 L 464.84375 163.898438 C 464.765625 161.8125 463.070312 160.117188 461.070312 160.117188 Z M 223.367188 341.5 L 207.734375 368.5 C 207.503906 368.886719 207.121094 369.273438 206.734375 369.503906 C 206.273438 369.734375 205.8125 369.890625 205.273438 369.890625 L 174.242188 369.890625 C 173.164062 369.890625 172.160156 369.351562 171.699219 368.347656 L 125.421875 287.878906 L 120.878906 279.933594 L 104.246094 251.460938 C 104.015625 251.078125 103.859375 250.613281 103.9375 250.074219 C 103.9375 249.609375 104.09375 249.070312 104.324219 248.6875 L 121.03125 219.675781 L 171.777344 131.726562 C 172.316406 130.800781 173.316406 130.179688 174.316406 130.179688 L 205.273438 130.179688 C 205.8125 130.179688 206.351562 130.335938 206.890625 130.566406 C 207.273438 130.800781 207.660156 131.109375 207.890625 131.570312 L 223.523438 158.726562 C 223.984375 159.652344 223.90625 160.8125 223.367188 161.660156 L 173.238281 248.6875 C 173.007812 249.070312 172.929688 249.535156 172.929688 249.921875 C 172.929688 250.382812 173.085938 250.769531 173.238281 251.15625 L 223.367188 338.101562 C 224.0625 339.261719 223.984375 340.496094 223.367188 341.5 Z M 378.988281 251.460938 L 362.355469 279.933594 L 357.8125 287.878906 L 311.535156 368.347656 C 310.996094 369.273438 310.070312 369.890625 308.992188 369.890625 L 277.960938 369.890625 C 277.421875 369.890625 276.960938 369.734375 276.5 369.503906 C 276.113281 369.273438 275.726562 368.964844 275.496094 368.5 L 259.867188 341.5 C 259.171875 340.496094 259.171875 339.261719 259.789062 338.257812 L 309.917969 251.308594 C 310.148438 250.921875 310.226562 250.460938 310.226562 250.074219 C 310.226562 249.609375 310.070312 249.226562 309.917969 248.839844 L 259.789062 161.8125 C 259.25 160.886719 259.171875 159.808594 259.632812 158.882812 L 275.265625 131.726562 C 275.496094 131.339844 275.882812 130.953125 276.265625 130.722656 C 276.730469 130.414062 277.269531 130.335938 277.882812 130.335938 L 308.992188 130.335938 C 310.070312 130.335938 311.070312 130.875 311.535156 131.878906 L 362.277344 219.832031 L 378.988281 248.839844 C 379.21875 249.304688 379.371094 249.765625 379.371094 250.226562 C 379.371094 250.539062 379.21875 251 378.988281 251.460938 Z M 378.988281 251.460938 "/>
</g>
</svg>
