<?xml version="1.0" encoding="UTF-8"?>
<svg xmlns="http://www.w3.org/2000/svg" xmlns:xlink="http://www.w3.org/1999/xlink" width="499px" height="499px" viewBox="0 0 499 499" version="1.1">
<g id="surface1">
<path style=" stroke:none;fill-rule:nonzero;fill:rgb(0.784314%,53.333333%,81.960784%);fill-opacity:1;" d="M 436.625 384.648438 C 436.625 413.359375 413.359375 436.625 384.648438 436.625 L 114.351562 436.625 C 85.652344 436.625 62.375 413.359375 62.375 384.648438 L 62.375 114.351562 C 62.375 85.640625 85.652344 62.375 114.351562 62.375 L 384.648438 62.375 C 413.359375 62.375 436.625 85.640625 436.625 114.351562 Z M 436.625 384.648438 "/>
<path style=" stroke:none;fill-rule:nonzero;fill:rgb(100%,100%,100%);fill-opacity:1;" d="M 124.75 197.523438 L 176.726562 197.523438 L 176.726562 374.25 L 124.75 374.25 Z M 150.585938 176.726562 L 150.292969 176.726562 C 134.78125 176.726562 124.75 165.167969 124.75 150.730469 C 124.75 135.976562 135.09375 124.75 150.886719 124.75 C 166.695312 124.75 176.4375 135.976562 176.726562 150.730469 C 176.726562 165.15625 166.695312 176.726562 150.585938 176.726562 Z M 374.25 374.25 L 322.273438 374.25 L 322.273438 279.660156 C 322.273438 256.808594 309.535156 241.214844 289.089844 241.214844 C 273.484375 241.214844 265.042969 251.734375 260.945312 261.902344 C 259.449219 265.542969 259.898438 275.605469 259.898438 280.6875 L 259.898438 374.25 L 207.914062 374.25 L 207.914062 197.523438 L 259.898438 197.523438 L 259.898438 224.71875 C 267.390625 213.117188 279.128906 197.523438 309.148438 197.523438 C 346.347656 197.523438 374.238281 220.914062 374.238281 273.140625 Z M 374.25 374.25 "/>
</g>
</svg>
