<?xml version="1.0" encoding="UTF-8"?>
<svg xmlns="http://www.w3.org/2000/svg" xmlns:xlink="http://www.w3.org/1999/xlink" width="500px" height="500px" viewBox="0 0 500 500" version="1.1">
<g id="surface1">
<path style=" stroke:none;fill-rule:nonzero;fill:rgb(50.196078%,50.196078%,50.196078%);fill-opacity:1;" d="M 322.265625 31.25 L 62.09375 41.667969 C 61.890625 41.675781 61.6875 41.6875 61.484375 41.707031 C 61.332031 41.71875 61.183594 41.734375 61.035156 41.746094 C 50.136719 42.515625 41.683594 51.574219 41.667969 62.5 L 41.667969 351.96875 C 41.667969 364.3125 45.332031 376.375 52.164062 386.636719 L 107.667969 469.890625 C 111.789062 476.070312 118.886719 479.589844 126.300781 479.125 L 459.636719 458.292969 C 470.613281 457.605469 479.164062 448.5 479.167969 437.5 L 479.167969 114.582031 C 479.160156 109.367188 477.203125 104.34375 473.671875 100.503906 C 472.835938 99.398438 471.78125 98.472656 470.582031 97.777344 C 470.566406 97.765625 470.554688 97.75 470.539062 97.738281 C 469.324219 96.851562 468.011719 96.101562 466.632812 95.5 L 381.183594 46.753906 L 381.875 47.199219 C 364.421875 35.339844 343.445312 29.710938 322.386719 31.25 Z M 323.445312 52.042969 C 323.566406 52.042969 323.691406 52.042969 323.8125 52.042969 C 340.214844 50.820312 356.5625 55.171875 370.15625 64.414062 C 370.382812 64.570312 370.613281 64.71875 370.847656 64.859375 L 423.421875 94.847656 L 142.824219 103.921875 L 93.097656 61.277344 Z M 437.5 136.109375 L 437.5 417.929688 L 145.832031 436.15625 L 145.832031 145.507812 Z M 405.027344 177.125 C 383.902344 178.375 362.660156 179.40625 341.472656 180.988281 C 334.511719 181.511719 329.34375 187.527344 328.492188 194.132812 C 328.09375 197.214844 328.9375 198.804688 332.4375 199.054688 C 338.855469 199.535156 345.222656 200.441406 351.886719 201.210938 L 351.886719 323.488281 C 349.929688 320.675781 348.859375 319.1875 347.859375 317.667969 C 320.566406 276.4375 293.15625 235.285156 266.113281 193.886719 C 262.03125 187.636719 258.207031 184.628906 250.039062 185.546875 C 230.9375 187.652344 211.671875 188.277344 192.503906 189.820312 C 181.878906 190.671875 175.570312 199.980469 178.425781 210.082031 C 185.613281 210.707031 192.859375 211.347656 200.277344 211.996094 L 200.277344 387.65625 C 195.402344 389.03125 190.546875 390.578125 185.628906 391.765625 C 180.628906 392.972656 178.285156 396.335938 177.328125 400.960938 C 176.554688 404.667969 177.464844 406.542969 182.007812 406.210938 C 197.609375 405.105469 213.296875 404.421875 228.921875 403.484375 C 235.378906 403.109375 241.855469 402.980469 248.210938 401.9375 C 256.875 400.5 261.59375 395.21875 262.53125 386.757812 C 254.824219 385.050781 247.070312 383.171875 239.257812 381.671875 C 235.777344 381.007812 234.597656 379.582031 234.621094 375.976562 C 234.746094 335.226562 234.71875 294.453125 234.742188 253.703125 C 234.742188 252.371094 235.019531 251.007812 235.269531 248.777344 C 236.480469 250.382812 236.96875 251.042969 237.425781 251.75 C 258.511719 284.480469 279.53125 317.289062 300.742188 349.933594 C 309.867188 363.976562 319.210938 377.871094 328.816406 391.601562 C 335.773438 401.558594 345.980469 404.71875 357.585938 402.304688 C 364.835938 400.78125 371.800781 397.878906 378.90625 395.628906 C 382.863281 394.378906 384.011719 391.820312 383.992188 387.65625 C 383.847656 327.78125 383.910156 267.921875 383.910156 208.046875 C 383.910156 196.902344 383.875 196.914062 394.9375 194.621094 C 405.105469 192.515625 408.089844 187.539062 405.027344 177.125 Z M 405.027344 177.125 "/>
</g>
</svg>
