<?xml version="1.0" encoding="UTF-8"?>
<svg xmlns="http://www.w3.org/2000/svg" xmlns:xlink="http://www.w3.org/1999/xlink" width="500px" height="500px" viewBox="0 0 500 501" version="1.1">
<g id="surface1">
<path style=" stroke:none;fill-rule:evenodd;fill:rgb(21.176471%,77.254902%,94.117647%);fill-opacity:1;" d="M 183.324219 0.0117188 C 155.683594 0.03125 133.3125 22.460938 133.335938 50.097656 C 133.3125 77.734375 155.703125 100.164062 183.34375 100.1875 L 233.351562 100.1875 L 233.351562 50.117188 C 233.371094 22.480469 210.980469 0.0507812 183.324219 0.0117188 C 183.34375 0.0117188 183.34375 0.0117188 183.324219 0.0117188 M 183.324219 133.605469 L 50.007812 133.605469 C 22.367188 133.625 -0.0195312 156.054688 0 183.691406 C -0.0390625 211.332031 22.347656 233.761719 49.988281 233.800781 L 183.324219 233.800781 C 210.960938 233.78125 233.351562 211.351562 233.332031 183.714844 C 233.351562 156.054688 210.960938 133.625 183.324219 133.605469 Z M 183.324219 133.605469 "/>
<path style=" stroke:none;fill-rule:evenodd;fill:rgb(18.039216%,71.372549%,49.019608%);fill-opacity:1;" d="M 500 183.691406 C 500.019531 156.054688 477.632812 133.625 449.992188 133.605469 C 422.351562 133.625 399.964844 156.054688 399.984375 183.691406 L 399.984375 233.800781 L 449.992188 233.800781 C 477.632812 233.78125 500.019531 211.351562 500 183.691406 Z M 366.664062 183.691406 L 366.664062 50.097656 C 366.6875 22.480469 344.316406 0.0507812 316.675781 0.0117188 C 289.039062 0.03125 266.648438 22.460938 266.667969 50.097656 L 266.667969 183.691406 C 266.628906 211.332031 289.019531 233.761719 316.65625 233.800781 C 344.296875 233.78125 366.6875 211.351562 366.664062 183.691406 Z M 366.664062 183.691406 "/>
<path style=" stroke:none;fill-rule:evenodd;fill:rgb(92.54902%,69.803922%,18.039216%);fill-opacity:1;" d="M 316.65625 500.988281 C 344.296875 500.96875 366.6875 478.539062 366.664062 450.902344 C 366.6875 423.265625 344.296875 400.835938 316.65625 400.8125 L 266.648438 400.8125 L 266.648438 450.902344 C 266.628906 478.519531 289.019531 500.949219 316.65625 500.988281 Z M 316.65625 367.375 L 449.992188 367.375 C 477.632812 367.355469 500.019531 344.925781 500 317.285156 C 500.039062 289.648438 477.652344 267.21875 450.011719 267.179688 L 316.675781 267.179688 C 289.039062 267.199219 266.648438 289.628906 266.667969 317.265625 C 266.648438 344.925781 289.019531 367.355469 316.65625 367.375 Z M 316.65625 367.375 "/>
<path style=" stroke:none;fill-rule:evenodd;fill:rgb(87.843137%,11.764706%,35.294118%);fill-opacity:1;" d="M 0 317.285156 C -0.0195312 344.925781 22.367188 367.355469 50.007812 367.375 C 77.648438 367.355469 100.035156 344.925781 100.015625 317.285156 L 100.015625 267.199219 L 50.007812 267.199219 C 22.367188 267.21875 -0.0195312 289.648438 0 317.285156 Z M 133.335938 317.285156 L 133.335938 450.882812 C 133.292969 478.519531 155.683594 500.949219 183.324219 500.988281 C 210.960938 500.96875 233.351562 478.539062 233.332031 450.902344 L 233.332031 317.328125 C 233.371094 289.691406 210.980469 267.261719 183.34375 267.21875 C 155.683594 267.21875 133.3125 289.648438 133.335938 317.285156 C 133.335938 317.285156 133.335938 317.308594 133.335938 317.285156 "/>
</g>
</svg>
