<?xml version="1.0" encoding="UTF-8"?>
<svg xmlns="http://www.w3.org/2000/svg" xmlns:xlink="http://www.w3.org/1999/xlink" width="500px" height="500px" viewBox="0 0 500 500" version="1.1">
<g id="surface1">
<path style=" stroke:none;fill-rule:nonzero;fill:rgb(11.764706%,84.313725%,37.647059%);fill-opacity:1;" d="M 250 0.00390625 C 111.929688 0.00390625 0 111.933594 0 250 C 0 388.070312 111.929688 499.996094 250 499.996094 C 388.082031 499.996094 500 388.074219 500 250 C 500 111.941406 388.082031 0.015625 249.996094 0.015625 L 250 0 Z M 364.648438 360.574219 C 360.167969 367.914062 350.558594 370.246094 343.210938 365.738281 C 284.515625 329.882812 210.621094 321.765625 123.601562 341.644531 C 115.214844 343.554688 106.855469 338.300781 104.945312 329.914062 C 103.023438 321.523438 108.257812 313.164062 116.667969 311.257812 C 211.898438 289.5 293.585938 298.867188 359.484375 339.136719 C 366.828125 343.644531 369.160156 353.226562 364.648438 360.574219 Z M 395.246094 292.503906 C 389.601562 301.671875 377.601562 304.566406 368.4375 298.925781 C 301.238281 257.621094 198.808594 245.65625 119.320312 269.789062 C 109.011719 272.902344 98.125 267.09375 95 256.800781 C 91.894531 246.492188 97.707031 235.628906 107.996094 232.496094 C 198.789062 204.949219 311.660156 218.289062 388.832031 265.710938 C 397.996094 271.355469 400.890625 283.355469 395.25 292.511719 L 395.25 292.507812 Z M 397.875 221.621094 C 317.300781 173.761719 184.367188 169.363281 107.4375 192.710938 C 95.085938 196.457031 82.019531 189.484375 78.277344 177.128906 C 74.535156 164.769531 81.503906 151.714844 93.863281 147.960938 C 182.171875 121.152344 328.972656 126.332031 421.742188 181.40625 C 432.875 188 436.519531 202.347656 429.917969 213.445312 C 423.351562 224.554688 408.960938 228.21875 397.886719 221.621094 Z M 397.875 221.621094 "/>
</g>
</svg>
