<?xml version="1.0" encoding="UTF-8"?>
<svg xmlns="http://www.w3.org/2000/svg" xmlns:xlink="http://www.w3.org/1999/xlink" width="500px" height="408px" viewBox="0 0 499 408" version="1.1">
<g id="surface1">
<path style=" stroke:none;fill-rule:nonzero;fill:rgb(33.333333%,67.45098%,93.333333%);fill-opacity:1;" d="M 499 49.683594 C 480.640625 57.835938 460.910156 63.347656 440.199219 65.828125 C 461.339844 53.136719 477.570312 33.042969 485.214844 9.101562 C 465.433594 20.851562 443.523438 29.382812 420.203125 33.984375 C 401.527344 14.058594 374.921875 1.605469 345.476562 1.605469 C 288.9375 1.605469 243.097656 47.511719 243.097656 104.132812 C 243.097656 112.167969 244.007812 119.992188 245.75 127.496094 C 160.664062 123.222656 85.230469 82.402344 34.738281 20.371094 C 25.925781 35.515625 20.878906 53.128906 20.878906 71.917969 C 20.878906 107.488281 38.953125 138.871094 66.421875 157.257812 C 49.640625 156.726562 33.855469 152.113281 20.050781 144.433594 C 20.042969 144.863281 20.042969 145.292969 20.042969 145.722656 C 20.042969 195.398438 55.332031 236.839844 102.164062 246.257812 C 93.574219 248.601562 84.53125 249.851562 75.191406 249.851562 C 68.597656 249.851562 62.183594 249.210938 55.933594 248.015625 C 68.960938 288.75 106.765625 318.390625 151.566406 319.21875 C 116.527344 346.71875 72.386719 363.109375 24.421875 363.109375 C 16.160156 363.109375 8.007812 362.625 0 361.679688 C 45.304688 390.769531 99.121094 407.742188 156.933594 407.742188 C 345.238281 407.742188 448.210938 251.507812 448.210938 116.023438 C 448.210938 111.574219 448.113281 107.152344 447.914062 102.757812 C 467.917969 88.300781 485.273438 70.242188 499 49.683594 "/>
</g>
</svg>
