<?xml version="1.0" encoding="UTF-8"?>
<svg xmlns="http://www.w3.org/2000/svg" xmlns:xlink="http://www.w3.org/1999/xlink" width="500px" height="500px" viewBox="0 0 500 500" version="1.1">
<g id="surface1">
<path style=" stroke:none;fill-rule:nonzero;fill:rgb(38.823529%,38.823529%,94.509804%);fill-opacity:1;" d="M 32.226562 250.042969 C 32.226562 258.355469 34.488281 266.667969 38.558594 273.632812 L 115.226562 405.753906 C 123.140625 419.234375 135.128906 430.246094 150.054688 435.1875 C 179.457031 444.851562 209.761719 432.492188 224.234375 407.550781 L 242.78125 375.644531 L 169.734375 250.042969 L 246.851562 117.023438 L 265.398438 85.117188 C 271.050781 75.453125 278.289062 67.816406 287.109375 61.523438 L 168.148438 61.523438 C 147.34375 61.523438 128.117188 72.535156 117.714844 90.507812 L 38.785156 226.449219 C 34.488281 233.414062 32.226562 241.726562 32.226562 250.042969 Z M 32.226562 250.042969 "/>
<path style=" stroke:none;fill-rule:nonzero;fill:rgb(38.823529%,38.823529%,94.509804%);fill-opacity:1;" d="M 468.75 250.054688 C 468.75 241.738281 466.488281 233.417969 462.417969 226.449219 L 384.617188 92.441406 C 370.144531 67.707031 339.839844 55.117188 310.4375 64.785156 C 295.511719 69.730469 283.523438 80.75 275.609375 94.238281 L 258.195312 124.367188 L 331.242188 250.054688 L 254.125 382.941406 L 235.578125 414.867188 C 229.925781 424.3125 222.6875 432.179688 213.867188 438.476562 L 332.828125 438.476562 C 353.632812 438.476562 372.859375 427.457031 383.261719 409.472656 L 462.191406 273.441406 C 466.488281 266.46875 468.75 258.375 468.75 250.054688 Z M 468.75 250.054688 "/>
</g>
</svg>
