<?xml version="1.0" encoding="UTF-8"?>
<svg xmlns="http://www.w3.org/2000/svg" xmlns:xlink="http://www.w3.org/1999/xlink" width="500px" height="500px" viewBox="0 0 500 500" version="1.1">
<g id="surface1">
<path style=" stroke:none;fill-rule:nonzero;fill:rgb(12.941176%,58.823529%,95.294118%);fill-opacity:1;" d="M 458.332031 250 C 458.332031 365.058594 365.058594 458.332031 250 458.332031 C 134.941406 458.332031 41.667969 365.058594 41.667969 250 C 41.667969 134.941406 134.941406 41.667969 250 41.667969 C 365.058594 41.667969 458.332031 134.941406 458.332031 250 Z M 458.332031 250 "/>
<path style=" stroke:none;fill-rule:nonzero;fill:rgb(100%,100%,100%);fill-opacity:1;" d="M 302.082031 322.917969 L 145.832031 322.917969 C 128.574219 322.917969 114.582031 308.925781 114.582031 291.667969 L 114.582031 177.082031 L 270.832031 177.082031 C 288.09375 177.082031 302.082031 191.074219 302.082031 208.332031 Z M 302.082031 322.917969 "/>
<path style=" stroke:none;fill-rule:nonzero;fill:rgb(100%,100%,100%);fill-opacity:1;" d="M 385.417969 322.917969 L 322.917969 281.25 L 322.917969 218.75 L 385.417969 177.082031 Z M 385.417969 322.917969 "/>
</g>
</svg>
